<svg version="1.1" id="Layer_1" xmlns="http://www.w3.org/2000/svg" xmlns:xlink="http://www.w3.org/1999/xlink" x="0px" y="0px"
	 width="100%" viewBox="0 0 512 512" enable-background="new 0 0 512 512" xml:space="preserve">
<path fill="#7DD63E" opacity="1.000000" stroke="none" 
	d="
M513.000000,93.000000 
	C513.000000,184.687561 513.000000,276.375122 512.742126,368.189240 
	C509.699585,371.290924 506.304535,372.090210 502.244110,372.075134 
	C467.221771,371.944916 432.198761,371.999298 396.736816,371.836365 
	C394.636902,371.594452 392.976135,371.446869 391.315216,371.444824 
	C342.525238,371.385040 293.735260,371.340332 244.945267,371.289703 
	C242.947311,371.287628 240.944305,371.334229 238.952484,371.212921 
	C234.841705,370.962646 232.546860,368.742279 232.268936,364.612396 
	C232.134979,362.621887 232.163757,360.618683 232.163651,358.621216 
	C232.159149,273.695770 232.160965,188.770309 232.152939,103.844856 
	C232.152710,101.515686 232.052963,99.186539 232.093323,96.651840 
	C232.186996,96.446297 232.418350,96.058258 232.566132,95.910500 
	C232.880356,95.531525 232.982727,95.274765 233.034546,94.684372 
	C233.054123,93.965134 233.060181,93.553993 233.409668,92.953384 
	C235.409546,92.176613 237.065308,91.079536 238.722488,91.077370 
	C270.807434,91.035454 302.892517,91.121582 334.976288,91.638580 
	C334.977356,109.066963 334.961151,126.038170 334.988525,143.009308 
	C335.006744,154.328690 341.455322,160.856613 352.959656,160.963593 
	C365.936523,161.084274 378.916046,161.077072 391.893066,160.966904 
	C403.672882,160.866898 409.977722,154.412354 410.005585,142.591629 
	C410.046021,125.454163 410.020020,108.316536 410.484924,91.108643 
	C439.867432,91.025528 468.787872,90.916473 497.706635,91.090248 
	C502.808044,91.120903 507.902405,92.333321 513.000000,93.000000 
z"/>
<path fill="#000000" opacity="1.000000" stroke="none" 
	d="
M513.000000,92.531342 
	C507.902405,92.333321 502.808044,91.120903 497.706635,91.090248 
	C468.787872,90.916473 439.867432,91.025528 410.039795,91.036903 
	C406.435303,90.982544 403.738525,90.929588 401.028320,90.416656 
	C401.010101,78.487289 401.014282,67.017891 400.997833,55.548531 
	C400.984283,46.107338 398.844025,44.009315 389.222687,44.000629 
	C377.587067,43.990124 365.951416,43.987175 354.315796,44.002319 
	C346.512909,44.012474 344.049591,46.488659 344.013092,54.482662 
	C343.957703,66.616577 343.970154,78.750793 343.507599,90.931168 
	C340.366760,91.045418 337.672180,91.113403 334.977570,91.181381 
	C302.892517,91.121582 270.807434,91.035454 238.722488,91.077370 
	C237.065308,91.079536 235.409546,92.176613 233.046402,92.901993 
	C226.882080,96.316620 221.424500,99.593178 215.606842,102.932610 
	C210.132080,105.860786 204.985184,108.670319 199.908615,111.601662 
	C183.538635,121.054100 167.201050,130.562637 150.838470,140.027939 
	C137.160416,147.940323 123.452080,155.800400 109.780220,163.723434 
	C93.578239,173.112701 77.402153,182.546631 61.212616,191.957367 
	C47.134296,200.140915 33.091400,208.386520 18.954395,216.467438 
	C13.074495,219.828476 6.990946,222.833237 0.999999,226.000000 
	C1.000000,151.039566 1.000000,76.079140 1.000000,1.059357 
	C171.666672,1.059357 342.333344,1.059357 513.000000,1.059357 
	C513.000000,31.428148 513.000000,61.745415 513.000000,92.531342 
z"/>
<path fill="#000000" opacity="1.000000" stroke="none" 
	d="
M397.175934,371.998596 
	C432.198761,371.999298 467.221771,371.944916 502.244110,372.075134 
	C506.304535,372.090210 509.699585,371.290924 512.742126,368.657898 
	C513.000000,416.977478 513.000000,464.954956 513.000000,512.966187 
	C342.435974,512.966187 171.871918,512.966187 1.000000,512.966187 
	C1.000000,420.979340 1.000000,328.958313 1.256209,236.135864 
	C8.670293,247.530624 15.884737,259.694061 22.970968,271.931732 
	C30.892138,285.611298 38.635193,299.394043 46.567055,313.067322 
	C58.256462,333.217926 70.094650,353.282318 81.772865,373.439362 
	C89.778404,387.257233 97.556679,401.206696 105.550980,415.031158 
	C114.932251,431.254059 124.543015,447.345032 133.837341,463.617096 
	C137.588776,470.184937 141.574524,471.406647 148.030945,467.519562 
	C157.658554,461.723267 167.386581,456.092896 177.098801,450.438202 
	C195.101883,439.956268 213.124435,429.507782 231.453552,418.903564 
	C234.184067,417.458038 236.599930,416.154388 239.376648,414.920593 
	C244.373169,417.642181 249.013535,420.285767 253.643723,422.947021 
	C279.248260,437.663605 304.960419,452.198456 330.376587,467.233582 
	C336.809418,471.038910 340.802673,470.462769 344.921722,463.308289 
	C360.697906,435.906158 376.403320,408.463318 392.448120,380.879333 
	C394.232697,377.814880 395.704315,374.906738 397.175934,371.998596 
z"/>
<path fill="#E93459" opacity="1.000000" stroke="none" 
	d="
M231.138901,419.045410 
	C213.124435,429.507782 195.101883,439.956268 177.098801,450.438202 
	C167.386581,456.092896 157.658554,461.723267 148.030945,467.519562 
	C141.574524,471.406647 137.588776,470.184937 133.837341,463.617096 
	C124.543015,447.345032 114.932251,431.254059 105.550980,415.031158 
	C97.556679,401.206696 89.778404,387.257233 81.772865,373.439362 
	C70.094650,353.282318 58.256462,333.217926 46.567055,313.067322 
	C38.635193,299.394043 30.892138,285.611298 22.970968,271.931732 
	C15.884737,259.694061 8.670293,247.530624 1.256209,235.667206 
	C1.000000,232.969406 1.000000,229.938812 0.999999,226.454102 
	C6.990946,222.833237 13.074495,219.828476 18.954395,216.467438 
	C33.091400,208.386520 47.134296,200.140915 61.212616,191.957367 
	C77.402153,182.546631 93.578239,173.112701 109.780220,163.723434 
	C123.452080,155.800400 137.160416,147.940323 150.838470,140.027939 
	C167.201050,130.562637 183.538635,121.054100 199.908615,111.601662 
	C204.985184,108.670319 210.132080,105.860786 215.536835,103.288498 
	C215.101410,105.069054 214.462723,106.606697 213.637436,108.036636 
	C200.991394,129.947678 188.312531,151.839783 175.658035,173.745956 
	C147.935089,221.737061 120.251389,269.750885 92.481682,317.714905 
	C86.148560,328.653442 88.447716,338.351929 99.544670,344.775299 
	C136.418762,366.119598 173.316193,387.424255 210.292755,408.590240 
	C217.029099,412.446289 224.179581,415.578857 231.138901,419.045410 
z"/>
<path fill="#D33050" opacity="1.000000" stroke="none" 
	d="
M231.453552,418.903564 
	C224.179581,415.578857 217.029099,412.446289 210.292755,408.590240 
	C173.316193,387.424255 136.418762,366.119598 99.544670,344.775299 
	C88.447716,338.351929 86.148560,328.653442 92.481682,317.714905 
	C120.251389,269.750885 147.935089,221.737061 175.658035,173.745956 
	C188.312531,151.839783 200.991394,129.947678 213.637436,108.036636 
	C214.462723,106.606697 215.101410,105.069054 215.896912,103.225624 
	C221.424500,99.593178 226.882080,96.316620 232.702942,93.091454 
	C233.060181,93.553993 233.054123,93.965134 232.862900,94.817299 
	C232.456985,95.481422 232.370529,95.748070 232.418350,96.058258 
	C232.418350,96.058258 232.186996,96.446297 231.835602,96.888947 
	C230.221405,99.449295 228.816528,101.496689 227.726395,103.699821 
	C225.663330,107.869255 223.780960,112.128113 221.463882,116.423050 
	C219.883942,118.259033 218.532242,119.945778 217.462311,121.795502 
	C179.042496,188.217499 140.649597,254.655075 102.251045,321.089386 
	C97.061989,330.067108 97.596191,332.037201 106.543266,337.206940 
	C149.201935,361.855682 191.860519,386.504578 234.490753,411.202423 
	C236.147552,412.162292 237.514053,413.623260 239.015808,414.850739 
	C236.599930,416.154388 234.184067,417.458038 231.453552,418.903564 
z"/>
<path fill="#FF961E" opacity="1.000000" stroke="none" 
	d="
M221.823517,116.349808 
	C223.780960,112.128113 225.663330,107.869255 227.726395,103.699821 
	C228.816528,101.496689 230.221405,99.449295 231.741913,97.094482 
	C232.052963,99.186539 232.152710,101.515686 232.152939,103.844856 
	C232.160965,188.770309 232.159149,273.695770 232.163651,358.621216 
	C232.163757,360.618683 232.134979,362.621887 232.268936,364.612396 
	C232.546860,368.742279 234.841705,370.962646 238.952484,371.212921 
	C240.944305,371.334229 242.947311,371.287628 244.945267,371.289703 
	C293.735260,371.340332 342.525238,371.385040 391.315216,371.444824 
	C392.976135,371.446869 394.636902,371.594452 396.736816,371.836365 
	C395.704315,374.906738 394.232697,377.814880 391.970428,380.874359 
	C340.849243,381.017578 290.518738,381.021667 240.188248,380.991394 
	C229.820526,380.985138 223.289810,375.109619 222.162109,364.824219 
	C221.927002,362.679993 222.008743,360.496796 222.008560,358.331573 
	C222.001984,280.669250 222.005020,203.006927 221.995422,125.344612 
	C221.995056,122.346336 221.883331,119.348076 221.823517,116.349808 
z"/>
<path fill="#71C138" opacity="1.000000" stroke="none" 
	d="
M334.976288,91.638580 
	C337.672180,91.113403 340.366760,91.045418 343.746704,91.278969 
	C344.573303,93.564407 344.832245,95.548019 344.837189,97.532272 
	C344.874237,112.357216 344.819275,127.182457 344.882446,142.007233 
	C344.911285,148.783279 347.122742,150.953873 353.925385,150.982590 
	C366.251617,151.034653 378.578308,151.031876 390.904572,150.984161 
	C397.916260,150.957016 400.071960,148.771744 400.094543,141.636978 
	C400.141998,126.645515 400.078949,111.653648 400.155151,96.662415 
	C400.164978,94.732368 400.732544,92.805153 401.041779,90.876633 
	C403.738525,90.929588 406.435303,90.982544 409.577209,91.107239 
	C410.020020,108.316536 410.046021,125.454163 410.005585,142.591629 
	C409.977722,154.412354 403.672882,160.866898 391.893066,160.966904 
	C378.916046,161.077072 365.936523,161.084274 352.959656,160.963593 
	C341.455322,160.856613 335.006744,154.328690 334.988525,143.009308 
	C334.961151,126.038170 334.977356,109.066963 334.976288,91.638580 
z"/>
<path fill="#9EC536" opacity="1.000000" stroke="none" 
	d="
M232.566132,95.910500 
	C232.370529,95.748070 232.456985,95.481422 232.849365,95.125397 
	C232.982727,95.274765 232.880356,95.531525 232.566132,95.910500 
z"/>
<path fill="#58535A" opacity="1.000000" stroke="none" 
	d="
M401.028320,90.416649 
	C400.732544,92.805153 400.164978,94.732368 400.155151,96.662415 
	C400.078949,111.653648 400.141998,126.645515 400.094543,141.636978 
	C400.071960,148.771744 397.916260,150.957016 390.904572,150.984161 
	C378.578308,151.031876 366.251617,151.034653 353.925385,150.982590 
	C347.122742,150.953873 344.911285,148.783279 344.882446,142.007233 
	C344.819275,127.182457 344.874237,112.357216 344.837189,97.532272 
	C344.832245,95.548019 344.573303,93.564407 344.192932,91.232697 
	C343.970154,78.750793 343.957703,66.616577 344.013092,54.482662 
	C344.049591,46.488659 346.512909,44.012474 354.315796,44.002319 
	C365.951416,43.987175 377.587067,43.990124 389.222687,44.000629 
	C398.844025,44.009315 400.984283,46.107338 400.997833,55.548531 
	C401.014282,67.017891 401.010101,78.487289 401.028320,90.416649 
z"/>
<path fill="#FFA721" opacity="1.000000" stroke="none" 
	d="
M221.463867,116.423050 
	C221.883331,119.348076 221.995056,122.346336 221.995422,125.344612 
	C222.005020,203.006927 222.001984,280.669250 222.008560,358.331573 
	C222.008743,360.496796 221.927002,362.679993 222.162109,364.824219 
	C223.289810,375.109619 229.820526,380.985138 240.188248,380.991394 
	C290.518738,381.021667 340.849243,381.017578 391.657440,381.030640 
	C376.403320,408.463318 360.697906,435.906158 344.921722,463.308289 
	C340.802673,470.462769 336.809418,471.038910 330.376587,467.233582 
	C304.960419,452.198456 279.248260,437.663605 253.643723,422.947021 
	C249.013535,420.285767 244.373169,417.642181 239.376648,414.920593 
	C237.514053,413.623260 236.147552,412.162292 234.490753,411.202423 
	C191.860519,386.504578 149.201935,361.855682 106.543266,337.206940 
	C97.596191,332.037201 97.061989,330.067108 102.251045,321.089386 
	C140.649597,254.655075 179.042496,188.217499 217.462311,121.795502 
	C218.532242,119.945778 219.883942,118.259033 221.463867,116.423050 
z"/>
</svg>